<?xml version="1.0" encoding="utf-8"?>
<!-- Generator: Adobe Illustrator 19.0.0, SVG Export Plug-In . SVG Version: 6.00 Build 0)  -->
<svg version="1.1" id="hand" xmlns="http://www.w3.org/2000/svg" xmlns:xlink="http://www.w3.org/1999/xlink" x="0px" y="0px"
	 viewBox="-285.625 198.28 131.25 200" enable-background="new -285.625 198.28 131.25 200" xml:space="preserve">
<path d="M-160.624,335.781c0,31.016-25.235,56.25-56.25,56.25h-6.25c-31.016,0-56.25-25.235-56.25-56.25v-12.5l0,0
	c0-6.875,5.625-12.5,12.5-12.5h12.5l0,0h6.25h12.5c1.084,0,2.122,0.184,3.125,0.444v4.244c0,0.862-0.7,1.563-1.563,1.563h-12.5
	c-0.862,0-1.563,0.7-1.563,1.563c0,0.862,0.7,1.563,1.563,1.563h14.062c1.725,0,3.125-1.4,3.125-3.125v-4.509
	c3.562,2.075,5.994,5.828,6.194,10.19c0.309,7.156-5.347,13.069-12.434,13.069h-15.625c-1.725,0-3.125,1.4-3.125,3.125
	s1.4,3.125,3.125,3.125h14.838c6.669,0,12.769-3.35,16.319-8.503c3.581,5.397,9.791,8.503,15.709,8.503
	c10.338,0,18.75-8.412,18.75-18.75v-87.5c0-6.894,5.606-12.5,12.5-12.5s12.5,5.606,12.5,12.5L-160.624,335.781L-160.624,335.781
	L-160.624,335.781z M-279.374,217.03c0-6.894,5.606-12.5,12.5-12.5s12.5,5.606,12.5,12.5v87.5h-12.501
	c-4.797,0-9.175,1.84-12.5,4.835C-279.375,309.365-279.375,217.03-279.374,217.03z M-248.124,270.156c0-6.875,5.625-12.5,12.5-12.5
	s12.5,5.625,12.5,12.5v39.178c-3.319-2.975-7.69-4.803-12.5-4.803h-12.5V270.156z M-216.874,270.156c0-6.875,5.625-12.5,12.5-12.5
	s12.5,5.625,12.5,12.5v53.125c0,6.903-5.597,12.5-12.5,12.5c-6.175,0-12.5-5.003-12.5-12.5V270.156z M-173.125,217.03
	c-10.356,0-18.75,8.394-18.75,18.75v20.46c-3.325-2.994-7.703-4.835-12.5-4.835c-6.506,0-12.26,3.362-15.625,8.431
	c-3.366-5.069-9.119-8.431-15.625-8.431c-4.797,0-9.175,1.84-12.5,4.835v-39.21c0-10.356-8.394-18.75-18.75-18.75
	c-10.313,0-18.75,8.437-18.75,18.75v118.75c0,34.375,28.125,62.5,62.5,62.5h6.25c34.375,0,62.5-28.125,62.5-62.5v-100
	C-154.374,225.468-162.812,217.03-173.125,217.03L-173.125,217.03z M-199.687,317.031c0.862,0,1.563,0.7,1.563,1.563v4.688
	c0,3.453-2.797,6.25-6.25,6.25c-0.862,0-1.563,0.7-1.563,1.563s0.7,1.563,1.563,1.563c5.178,0,9.375-4.197,9.375-9.375v-6.25
	c0-1.725-1.4-3.125-3.125-3.125h-14.062l0,0c-0.862,0-1.563,0.7-1.563,1.563c0,0.862,0.7,1.563,1.563,1.563h12.499V317.031z
	 M-260.624,284.218c0-0.862-0.7-1.563-1.563-1.563h-9.375c-0.862,0-1.563,0.7-1.563,1.563c0,0.862,0.7,1.563,1.563,1.563h9.375
	C-261.324,285.781-260.624,285.081-260.624,284.218L-260.624,284.218z M-229.375,296.718c0-0.862-0.7-1.563-1.563-1.563h-9.375
	c-0.862,0-1.563,0.7-1.563,1.563c0,0.862,0.7,1.563,1.563,1.563h9.375C-230.075,298.281-229.375,297.581-229.375,296.718
	L-229.375,296.718z M-209.062,298.281h9.375c0.862,0,1.563-0.7,1.563-1.563c0-0.862-0.7-1.563-1.563-1.563h-9.375
	c-0.862,0-1.563,0.7-1.563,1.563S-209.925,298.281-209.062,298.281L-209.062,298.281z M-168.437,301.406h-9.375
	c-0.862,0-1.563,0.7-1.563,1.563c0,0.862,0.7,1.563,1.563,1.563h9.375c0.862,0,1.563-0.7,1.563-1.563
	C-166.874,302.106-167.574,301.406-168.437,301.406L-168.437,301.406z M-168.437,260.78h-9.375c-0.862,0-1.563,0.7-1.563,1.563
	c0,0.862,0.7,1.563,1.563,1.563h9.375c0.862,0,1.563-0.7,1.563-1.563S-167.574,260.78-168.437,260.78L-168.437,260.78z
	 M-271.562,245.155h9.375c0.862,0,1.563-0.7,1.563-1.563s-0.7-1.563-1.563-1.563h-9.375c-0.862,0-1.563,0.7-1.563,1.563
	S-272.425,245.155-271.562,245.155L-271.562,245.155z"/>
</svg>
